<?xml version="1.0" encoding="UTF-8" standalone="no"?>
<svg width="166px" height="31px" viewBox="0 0 166 31" version="1.1" xmlns="http://www.w3.org/2000/svg" xmlns:xlink="http://www.w3.org/1999/xlink">
    <!-- Generator: Sketch 3.7 (28169) - http://www.bohemiancoding.com/sketch -->
    <title>chorus-logo</title>
    <desc>Created with Sketch.</desc>
    <defs>
        <linearGradient x1="0%" y1="64.2104735%" x2="100%" y2="35.0220706%" id="linearGradient-1">
            <stop stop-color="#00B5D0" offset="0%"></stop>
            <stop stop-color="#00D0B4" offset="100%"></stop>
        </linearGradient>
    </defs>
    <g id="Page-1" stroke="none" stroke-width="1" fill="none" fill-rule="evenodd">
        <g id="chorus-logo" fill="url(#linearGradient-1)">
            <path d="M81.5484577,2.68805769 L80.9860263,2.68805769 C80.4224244,2.68805769 79.9635833,3.15544231 79.9635833,3.72953846 L79.9635833,27.1679231 C79.9635833,27.7414231 80.4224244,28.2094038 80.9860263,28.2094038 L81.5484577,28.2094038 C82.1120596,28.2094038 82.5714859,27.7414231 82.5714859,27.1679231 L82.5714859,3.72953846 C82.5714859,3.15544231 82.1120596,2.68805769 81.5484577,2.68805769 M64.1628308,5.61517308 L63.6003994,5.61517308 C63.0367974,5.61517308 62.5779564,6.08255769 62.5779564,6.65665385 L62.5779564,24.2402115 C62.5779564,24.8143077 63.0367974,25.2816923 63.6003994,25.2816923 L64.1628308,25.2816923 C64.7270179,25.2816923 65.185859,24.8143077 65.185859,24.2402115 L65.185859,6.65665385 C65.185859,6.08255769 64.7270179,5.61517308 64.1628308,5.61517308 M72.8556442,0 L72.2937981,0 C71.7296109,0 71.2707699,0.467384615 71.2707699,1.04207692 L71.2707699,29.8553846 C71.2707699,30.4294808 71.7296109,30.8968654 72.2937981,30.8968654 L72.8556442,30.8968654 C73.4198314,30.8968654 73.8786724,30.4294808 73.8786724,29.8553846 L73.8786724,1.04207692 C73.8786724,0.467384615 73.4198314,0 72.8556442,0 M77.2023436,5.12811538 L76.6399122,5.12811538 C76.075725,5.12811538 75.616884,5.5955 75.616884,6.16959615 L75.616884,24.7278654 C75.616884,25.3019615 76.075725,25.7693462 76.6399122,25.7693462 L77.2023436,25.7693462 C77.7659455,25.7693462 78.2247865,25.3019615 78.2247865,24.7278654 L78.2247865,6.16959615 C78.2247865,5.5955 77.7659455,5.12811538 77.2023436,5.12811538 M68.5095301,3.42013462 L67.9470987,3.42013462 C67.3829115,3.42013462 66.9246558,3.88751923 66.9246558,4.46221154 L66.9246558,26.4358462 C66.9246558,27.0099423 67.3829115,27.4773269 67.9470987,27.4773269 L68.5095301,27.4773269 C69.0737173,27.4773269 69.5319731,27.0099423 69.5319731,26.4358462 L69.5319731,4.46221154 C69.5319731,3.88751923 69.0737173,3.42013462 68.5095301,3.42013462 M85.8951571,9.45917308 L85.3321404,9.45917308 C84.7685385,9.45917308 84.3096974,9.92715385 84.3096974,10.50125 L84.3096974,20.3962115 C84.3096974,20.9703077 84.7685385,21.4376923 85.3321404,21.4376923 L85.8951571,21.4376923 C86.458759,21.4376923 86.9176,20.9703077 86.9176,20.3962115 L86.9176,10.50125 C86.9176,9.92715385 86.458759,9.45917308 85.8951571,9.45917308 M59.8167167,9.45917308 L59.2542853,9.45917308 C58.6906833,9.45917308 58.2318423,9.92715385 58.2318423,10.50125 L58.2318423,20.3962115 C58.2318423,20.9703077 58.6906833,21.4376923 59.2542853,21.4376923 L59.8167167,21.4376923 C60.3809038,21.4376923 60.8397449,20.9703077 60.8397449,20.3962115 L60.8397449,10.50125 C60.8397449,9.92715385 60.3809038,9.45917308 59.8167167,9.45917308 M157.53815,12.2408269 C154.768131,11.098 153.638587,10.106 153.638587,8.81711538 C153.638587,7.90917308 154.565633,7.16994231 155.705127,7.16994231 C157.590823,7.16994231 159.882687,8.72411538 160.635327,9.23442308 C160.772277,9.32801923 160.870015,9.393 160.881135,9.39538462 C161.055541,9.53309615 161.282621,9.58257692 161.539548,9.53607692 C161.935181,9.46632692 162.363004,9.17361538 162.578378,8.82963462 L164.498019,5.87569231 C164.715149,5.48998077 164.789477,4.61721154 164.193101,4.26548077 C162.733471,3.17571154 159.72935,1.34671154 156.004778,1.34671154 C151.559756,1.34671154 147.06089,4.05682692 147.06089,9.23680769 C147.06089,13.9547692 151.11262,16.5766538 154.511204,17.9454231 C157.017272,18.9588846 158.184273,20.0951538 158.184273,21.52175 C158.184273,22.6937885 157.24201,23.5123077 155.892409,23.5123077 C154.928492,23.5123077 153.274557,23.1719038 150.872079,21.5533462 C150.779609,21.49075 150.731033,21.45975 150.742738,21.4686923 C150.502197,21.2940192 150.110076,21.2236731 149.764189,21.2952115 C149.452833,21.359 149.20644,21.5283077 149.046079,21.7941923 L147.285628,24.9603654 C146.89058,25.6650192 147.111222,25.9690577 147.520901,26.3863654 C148.016028,26.8919038 150.761466,29.41125 156.155189,29.41125 C161.870803,29.41125 165.28636,25.2447308 165.28636,21.2159231 C165.28636,15.3789808 159.453109,13.0170192 157.53815,12.2408269 M140.110385,1.53748077 L135.503246,1.53748077 C134.949594,1.53748077 134.499531,1.99651923 134.499531,2.56048077 L134.499531,18.0115962 C134.499531,20.5822115 132.612079,22.5209038 130.110108,22.5209038 C127.650276,22.5209038 125.796183,20.5822115 125.796183,18.0115962 L125.796183,2.56048077 C125.796183,1.99651923 125.345536,1.53748077 124.791883,1.53748077 L120.184745,1.53748077 C119.649821,1.53748077 119.180445,2.01559615 119.180445,2.56048077 L119.180445,18.3174231 C119.180445,24.3296346 124.083138,29.2210769 130.110108,29.2210769 C136.177462,29.2210769 141.114099,24.3296346 141.114099,18.3174231 L141.114099,2.56048077 C141.114099,2.01559615 140.645309,1.53748077 140.110385,1.53748077 M107.354169,10.3808269 C107.354169,8.97092308 106.184826,7.77980769 104.80011,7.77980769 L99.5497744,7.77980769 L99.5497744,13.1350577 L104.80011,13.1350577 C106.160831,13.1350577 107.354169,11.8479615 107.354169,10.3808269 M108.319842,18.0831346 L113.298033,27.4844808 C113.478877,27.8272692 113.477121,28.2344423 113.293936,28.5468269 C113.113677,28.8538462 112.78886,29.0303077 112.403761,29.0303077 L107.422058,29.0303077 C107.001844,29.0303077 106.681124,28.7662115 106.560561,28.5217885 L101.660794,18.5761538 L99.5497744,18.5761538 L99.5497744,28.0073077 C99.5497744,28.5521923 99.0803987,29.0303077 98.5454744,29.0303077 L94.0887468,29.0303077 C93.534509,29.0303077 93.0844468,28.5712692 93.0844468,28.0073077 L93.0844468,2.75065385 C93.0844468,2.18669231 93.534509,1.72825 94.0887468,1.72825 L105.287628,1.72825 C109.950366,1.72825 113.744583,5.55853846 113.744583,10.2669615 C113.744583,13.6209231 111.675117,16.5885769 108.319842,18.0831346 M51.0782532,1.72825 L46.6215256,1.72825 C46.0672878,1.72825 45.6172256,2.18669231 45.6172256,2.75065385 L45.6172256,12.06675 L35.490534,12.06675 L35.490534,2.75065385 C35.490534,2.18669231 35.0404718,1.72825 34.486234,1.72825 L30.0295064,1.72825 C29.4945821,1.72825 29.0252064,2.20576923 29.0252064,2.75065385 L29.0252064,28.0073077 C29.0252064,28.5521923 29.4945821,29.0303077 30.0295064,29.0303077 L34.486234,29.0303077 C35.0404718,29.0303077 35.490534,28.5712692 35.490534,28.0073077 L35.490534,18.2715192 L45.6172256,18.2715192 L45.6172256,28.0073077 C45.6172256,28.5712692 46.0672878,29.0303077 46.6215256,29.0303077 L51.0782532,29.0303077 C51.6131776,29.0303077 52.0825532,28.5521923 52.0825532,28.0073077 L52.0825532,2.75065385 C52.0825532,2.20576923 51.6131776,1.72825 51.0782532,1.72825 M6.9522609,15.2645192 C6.9522609,19.4405769 10.0646545,22.7110769 14.0379603,22.7110769 C15.8054346,22.7110769 17.6103654,22.0535192 18.8657404,20.9524231 C19.2584474,20.6090385 19.9320776,20.6418269 20.2527981,21.0215769 L23.165034,24.1782115 C23.5284782,24.5484231 23.5109205,25.2268462 23.1211397,25.6238846 C20.6139013,28.1026923 17.3961615,29.41125 13.8132218,29.41125 C6.19669487,29.41125 0,23.13375 0,15.4177308 C0,7.65878846 6.19669487,1.34671154 13.8132218,1.34671154 C17.5184801,1.34671154 20.3745314,2.46509615 23.0743192,4.97251923 C23.2926199,5.16984615 23.4190353,5.43453846 23.4272288,5.71532692 C23.4348372,5.99432692 23.3265647,6.26319231 23.1205545,6.47184615 L20.2042218,9.55753846 C20.0181103,9.74771154 19.7781551,9.84965385 19.5247391,9.84965385 L19.5241538,9.84965385 C19.2707378,9.84965385 19.0313679,9.74711538 18.8499385,9.56171154 C17.5535955,8.3855 15.7814391,7.7035 14.0005038,7.7035 C10.0482673,7.7035 6.9522609,11.0246731 6.9522609,15.2645192" id="Fill-1"></path>
        </g>
    </g>
</svg>